<?xml version="1.0" encoding="UTF-8"?>
<svg xmlns="http://www.w3.org/2000/svg" xmlns:xlink="http://www.w3.org/1999/xlink" width="171px" height="149px" viewBox="0 0 170 149" version="1.1">
<g id="surface1">
<path style=" stroke:none;fill-rule:nonzero;fill:rgb(0%,0%,0%);fill-opacity:1;" d="M 11.859375 123.199219 C 6.015625 123.199219 0.00390625 127.902344 0.00390625 136.136719 C 0.00390625 143.660156 5.289062 148.976562 11.859375 148.976562 C 17.285156 148.976562 19.703125 145.320312 19.703125 145.320312 L 19.703125 146.914062 C 19.703125 147.667969 20.410156 148.507812 21.289062 148.507812 L 25.210938 148.507812 L 25.210938 123.761719 L 19.703125 123.761719 L 19.703125 126.902344 C 19.703125 126.902344 17.265625 123.199219 11.859375 123.199219 Z M 12.839844 128.261719 C 17.652344 128.261719 20.175781 132.507812 20.175781 136.132812 C 20.175781 140.167969 17.179688 144.003906 12.851562 144.003906 C 9.234375 144.003906 5.609375 141.0625 5.609375 136.078125 C 5.609375 131.582031 8.726562 128.261719 12.839844 128.261719 Z M 12.839844 128.261719 "/>
<path style=" stroke:none;fill-rule:nonzero;fill:rgb(0%,0%,0%);fill-opacity:1;" d="M 32.863281 148.507812 C 32.019531 148.507812 31.277344 147.898438 31.277344 146.914062 L 31.277344 123.761719 L 36.785156 123.761719 L 36.785156 126.824219 C 38.035156 124.941406 40.472656 123.191406 44.214844 123.191406 C 50.332031 123.191406 53.589844 128.089844 53.589844 132.667969 L 53.589844 148.507812 L 49.761719 148.507812 C 48.757812 148.507812 48.082031 147.664062 48.082031 146.820312 L 48.082031 133.886719 C 48.082031 131.347656 46.535156 128.265625 42.953125 128.265625 C 39.085938 128.265625 36.785156 131.933594 36.785156 135.386719 L 36.785156 148.507812 Z M 32.863281 148.507812 "/>
<path style=" stroke:none;fill-rule:nonzero;fill:rgb(0%,0%,0%);fill-opacity:1;" d="M 69.648438 123.199219 C 63.800781 123.199219 57.789062 127.902344 57.789062 136.136719 C 57.789062 143.660156 63.074219 148.976562 69.648438 148.976562 C 75.070312 148.976562 77.488281 145.320312 77.488281 145.320312 L 77.488281 146.914062 C 77.488281 147.667969 78.199219 148.507812 79.074219 148.507812 L 82.996094 148.507812 L 82.996094 111.390625 L 77.488281 111.390625 L 77.488281 126.902344 C 77.488281 126.902344 75.050781 123.199219 69.648438 123.199219 Z M 70.628906 128.261719 C 75.441406 128.261719 77.964844 132.507812 77.964844 136.132812 C 77.964844 140.167969 74.96875 144.003906 70.636719 144.003906 C 67.019531 144.003906 63.394531 141.0625 63.394531 136.078125 C 63.394531 131.582031 66.515625 128.261719 70.628906 128.261719 Z M 70.628906 128.261719 "/>
<path style=" stroke:none;fill-rule:nonzero;fill:rgb(0%,0%,0%);fill-opacity:1;" d="M 90.652344 148.507812 C 89.804688 148.507812 89.066406 147.898438 89.066406 146.914062 L 89.066406 123.761719 L 94.574219 123.761719 L 94.574219 127.886719 C 95.519531 125.578125 97.566406 123.480469 101.199219 123.480469 C 102.214844 123.480469 103.160156 123.667969 103.160156 123.667969 L 103.160156 129.386719 C 103.160156 129.386719 101.980469 128.917969 100.546875 128.917969 C 96.683594 128.917969 94.574219 132.585938 94.574219 136.035156 L 94.574219 148.507812 Z M 90.652344 148.507812 "/>
<path style=" stroke:none;fill-rule:nonzero;fill:rgb(0%,0%,0%);fill-opacity:1;" d="M 136.582031 148.507812 C 135.734375 148.507812 134.996094 147.898438 134.996094 146.914062 L 134.996094 123.761719 L 140.503906 123.761719 L 140.503906 148.507812 Z M 136.582031 148.507812 "/>
<path style=" stroke:none;fill-rule:nonzero;fill:rgb(0%,0%,0%);fill-opacity:1;" d="M 156.652344 123.199219 C 150.808594 123.199219 144.796875 127.902344 144.796875 136.136719 C 144.796875 143.660156 150.082031 148.976562 156.652344 148.976562 C 162.078125 148.976562 164.496094 145.320312 164.496094 145.320312 L 164.496094 146.914062 C 164.496094 147.667969 165.203125 148.507812 166.082031 148.507812 L 170.003906 148.507812 L 170.003906 111.390625 L 164.496094 111.390625 L 164.496094 126.902344 C 164.496094 126.902344 162.058594 123.199219 156.652344 123.199219 Z M 157.632812 128.261719 C 162.445312 128.261719 164.972656 132.507812 164.972656 136.132812 C 164.972656 140.167969 161.972656 144.003906 157.644531 144.003906 C 154.027344 144.003906 150.402344 141.0625 150.402344 136.078125 C 150.402344 131.582031 153.519531 128.261719 157.632812 128.261719 Z M 157.632812 128.261719 "/>
<path style=" stroke:none;fill-rule:nonzero;fill:rgb(0%,0%,0%);fill-opacity:1;" d="M 141.351562 114.769531 C 141.351562 116.789062 139.722656 118.425781 137.710938 118.425781 C 135.699219 118.425781 134.070312 116.789062 134.070312 114.769531 C 134.070312 112.75 135.699219 111.113281 137.710938 111.113281 C 139.722656 111.113281 141.351562 112.75 141.351562 114.769531 Z M 141.351562 114.769531 "/>
<path style=" stroke:none;fill-rule:nonzero;fill:rgb(0%,0%,0%);fill-opacity:1;" d="M 117.6875 123.191406 C 111.566406 123.191406 104.839844 127.78125 104.839844 136.089844 C 104.839844 143.664062 110.570312 148.976562 117.675781 148.976562 C 126.429688 148.976562 130.707031 141.910156 130.707031 136.140625 C 130.707031 129.058594 125.199219 123.191406 117.6875 123.191406 Z M 117.707031 128.355469 C 121.941406 128.355469 125.097656 131.78125 125.097656 136.105469 C 125.097656 140.507812 121.746094 143.902344 117.71875 143.902344 C 113.984375 143.902344 110.347656 140.847656 110.347656 136.179688 C 110.347656 131.4375 113.804688 128.355469 117.707031 128.355469 Z M 117.707031 128.355469 "/>
<path style=" stroke:none;fill-rule:nonzero;fill:rgb(19.607843%,87.058824%,51.764706%);fill-opacity:1;" d="M 126.492188 28.816406 L 140.582031 4.308594 C 141.378906 2.933594 140.898438 1.1875 139.546875 0.390625 C 138.199219 -0.410156 136.441406 0.0546875 135.664062 1.429688 L 121.386719 26.253906 C 110.492188 21.257812 98.230469 18.472656 85.046875 18.472656 C 71.859375 18.472656 59.597656 21.257812 48.703125 26.253906 L 34.425781 1.429688 C 33.632812 0.0546875 31.894531 -0.410156 30.523438 0.390625 C 29.15625 1.1875 28.695312 2.933594 29.488281 4.308594 L 43.582031 28.816406 C 19.28125 42.035156 2.820312 66.730469 0.101562 95.640625 L 169.988281 95.640625 C 167.269531 66.730469 150.8125 42.035156 126.492188 28.816406 Z M 46.042969 71.6875 C 42.101562 71.6875 38.921875 68.476562 38.921875 64.539062 C 38.921875 60.585938 42.121094 57.390625 46.042969 57.390625 C 49.980469 57.390625 53.160156 60.605469 53.160156 64.539062 C 53.179688 68.476562 49.980469 71.6875 46.042969 71.6875 Z M 124.03125 71.6875 C 120.09375 71.6875 116.910156 68.476562 116.910156 64.539062 C 116.910156 60.585938 120.109375 57.390625 124.03125 57.390625 C 127.972656 57.390625 131.152344 60.605469 131.152344 64.539062 C 131.171875 68.476562 127.972656 71.6875 124.03125 71.6875 Z M 124.03125 71.6875 "/>
</g>
</svg>
