<?xml version="1.0" encoding="UTF-8"?>
<svg xmlns="http://www.w3.org/2000/svg" xmlns:xlink="http://www.w3.org/1999/xlink" width="100px" height="100px" viewBox="0 0 100 100" version="1.1">
<g id="surface1">
<path style=" stroke:none;fill-rule:nonzero;fill:rgb(0%,0%,0%);fill-opacity:1;" d="M 39.84375 44.53125 L 39.84375 29.113281 L 50.96875 29.113281 C 57.050781 29.113281 60.605469 31.96875 60.605469 36.84375 C 60.605469 41.855469 56.832031 44.53125 49.582031 44.53125 Z M 39.84375 68.042969 L 51.707031 68.042969 C 59.105469 68.042969 63.019531 65.042969 63.019531 59.4375 C 63.019531 53.90625 58.957031 51.011719 51.230469 51.011719 L 39.84375 51.011719 Z M 39.84375 68.042969 "/>
<path style=" stroke:none;fill-rule:nonzero;fill:rgb(0%,0%,0%);fill-opacity:1;" d="M 25.011719 0 C 11.207031 0 0.0117188 11.191406 0.0117188 25 L 0.0117188 75 C 0.0117188 88.808594 11.207031 100 25.011719 100 L 75.011719 100 C 88.820312 100 100.011719 88.808594 100.011719 75 L 100.011719 25 C 100.011719 11.191406 88.820312 0 75.011719 0 Z M 31.636719 75 L 31.636719 22.15625 L 52.882812 22.15625 C 62.800781 22.15625 68.773438 27.210938 68.773438 35.34375 C 68.773438 40.867188 64.710938 45.8125 59.507812 46.695312 L 59.507812 47.320312 C 66.648438 48.050781 71.40625 53.136719 71.40625 60.023438 C 71.40625 69.324219 64.632812 75 53.355469 75 Z M 31.636719 75 "/>
</g>
</svg>
