<?xml version="1.0" encoding="UTF-8"?>
<svg xmlns="http://www.w3.org/2000/svg" xmlns:xlink="http://www.w3.org/1999/xlink" width="171px" height="58px" viewBox="0 0 170 58" version="1.1">
<g id="surface1">
<path style=" stroke:none;fill-rule:nonzero;fill:rgb(27.843137%,54.117647%,100%);fill-opacity:1;" d="M 28.753906 15.78125 C 21.542969 15.78125 15.691406 21.703125 15.691406 29 C 15.691406 36.296875 21.542969 42.21875 28.753906 42.21875 C 35.972656 42.21875 41.816406 36.296875 41.816406 29 C 41.808594 21.703125 35.964844 15.792969 28.753906 15.78125 Z M 28.753906 15.78125 "/>
<path style=" stroke:none;fill-rule:nonzero;fill:rgb(27.843137%,54.117647%,100%);fill-opacity:1;" d="M 53.457031 10.933594 C 53.457031 14.261719 50.792969 16.953125 47.507812 16.953125 C 44.226562 16.953125 41.558594 14.261719 41.558594 10.933594 C 41.558594 7.609375 44.226562 4.910156 47.507812 4.910156 C 50.792969 4.910156 53.457031 7.609375 53.457031 10.933594 Z M 53.457031 10.933594 "/>
<path style=" stroke:none;fill-rule:nonzero;fill:rgb(27.843137%,54.117647%,100%);fill-opacity:1;" d="M 54.839844 16.984375 L 54.585938 16.433594 L 54.195312 16.890625 C 53.226562 18.011719 51.988281 18.871094 50.609375 19.390625 L 50.214844 19.539062 L 50.367188 19.929688 C 54.707031 30.480469 50.988281 42.660156 41.53125 48.898438 C 32.066406 55.132812 19.554688 53.65625 11.765625 45.378906 C 3.984375 37.101562 3.140625 24.382812 9.761719 15.125 C 16.382812 5.871094 28.585938 2.710938 38.789062 7.617188 L 39.152344 7.789062 L 39.3125 7.398438 C 39.898438 6.023438 40.804688 4.824219 41.957031 3.890625 L 42.425781 3.5 L 41.890625 3.21875 C 37.832031 1.078125 33.324219 -0.0273438 28.753906 -0.0117188 C 16.03125 -0.0117188 4.839844 8.46875 1.253906 20.816406 C -2.332031 33.164062 2.554688 46.425781 13.253906 53.390625 C 23.953125 60.34375 37.90625 59.339844 47.519531 50.910156 C 57.136719 42.488281 60.109375 28.660156 54.832031 16.953125 Z M 54.839844 16.984375 "/>
<path style=" stroke:none;fill-rule:nonzero;fill:rgb(27.843137%,54.117647%,100%);fill-opacity:1;" d="M 72.164062 16.371094 L 78.207031 16.371094 L 78.207031 41.628906 L 72.164062 41.628906 Z M 72.164062 16.371094 "/>
<path style=" stroke:none;fill-rule:nonzero;fill:rgb(27.843137%,54.117647%,100%);fill-opacity:1;" d="M 137.382812 16.371094 L 143.429688 16.371094 L 143.429688 41.628906 L 137.382812 41.628906 Z M 137.382812 16.371094 "/>
<path style=" stroke:none;fill-rule:nonzero;fill:rgb(27.843137%,54.117647%,100%);fill-opacity:1;" d="M 123.429688 15.78125 C 119.179688 15.78125 115.898438 18.371094 115.140625 19.089844 L 114.757812 16.371094 L 109.722656 16.371094 L 109.722656 41.628906 L 115.765625 41.628906 L 115.765625 26.335938 C 115.765625 23.355469 119.789062 20.882812 122.730469 20.882812 C 125.679688 20.882812 127.890625 23.734375 127.890625 27.128906 L 127.890625 41.628906 L 133.933594 41.628906 L 133.933594 27.726562 C 133.914062 21.109375 131.09375 15.78125 123.429688 15.78125 Z M 123.429688 15.78125 "/>
<path style=" stroke:none;fill-rule:nonzero;fill:rgb(27.843137%,54.117647%,100%);fill-opacity:1;" d="M 159.296875 37.035156 C 154.753906 37.035156 151.75 33.4375 151.75 29 C 151.75 24.5625 154.753906 20.964844 159.296875 20.964844 C 163.167969 20.964844 165.53125 24.761719 165.53125 24.761719 L 169.90625 21.796875 C 168.644531 19.824219 167.179688 18.644531 165.1875 17.417969 C 163.460938 16.359375 161.488281 15.800781 159.476562 15.78125 C 151.910156 15.78125 146.140625 21.53125 146.101562 29 C 146.140625 36.46875 151.910156 42.21875 159.476562 42.21875 C 161.480469 42.199219 163.445312 41.632812 165.160156 40.582031 C 167.15625 39.363281 168.617188 38.175781 169.886719 36.203125 L 165.511719 33.238281 C 165.511719 33.238281 163.167969 37.035156 159.296875 37.035156 Z M 159.296875 37.035156 "/>
<path style=" stroke:none;fill-rule:nonzero;fill:rgb(27.843137%,54.117647%,100%);fill-opacity:1;" d="M 93.964844 15.78125 C 90.503906 15.726562 87.164062 17.085938 84.703125 19.550781 C 82.242188 22.023438 80.871094 25.386719 80.894531 28.894531 C 80.894531 36.058594 86.1875 42.21875 94.058594 42.21875 C 101.183594 42.21875 107.019531 36.695312 107.019531 29.046875 C 107.019531 20.289062 100.226562 15.78125 93.964844 15.78125 Z M 94.042969 20.976562 C 97.789062 20.976562 101.335938 24.050781 101.335938 29.011719 C 101.335938 33.863281 97.804688 37.03125 94.023438 37.03125 C 89.875 37.03125 86.621094 33.652344 86.621094 28.972656 C 86.621094 24.394531 89.847656 20.976562 94.0625 20.976562 Z M 94.042969 20.976562 "/>
</g>
</svg>
