<?xml version="1.0" encoding="UTF-8"?>
<svg xmlns="http://www.w3.org/2000/svg" xmlns:xlink="http://www.w3.org/1999/xlink" width="171px" height="44px" viewBox="0 0 171 44" version="1.1">
<g id="surface1">
<path style=" stroke:none;fill-rule:nonzero;fill:rgb(42.745098%,70.196078%,24.705882%);fill-opacity:1;" d="M 40.195312 2.582031 C 39.609375 4.03125 38.792969 5.4375 37.84375 6.707031 C 29.441406 -2.039062 15.566406 -2.265625 6.890625 6.164062 C -1.789062 14.589844 -2.058594 28.503906 6.347656 37.203125 C 6.617188 37.519531 6.933594 37.792969 7.25 38.0625 L 8.0625 38.789062 C 17.285156 46.582031 31.113281 45.40625 38.886719 36.160156 C 41.867188 32.625 43.675781 28.183594 43.992188 23.5625 C 44.625 18.082031 42.953125 11.011719 40.195312 2.582031 Z M 10.414062 38.289062 C 9.78125 39.105469 8.605469 39.195312 7.792969 38.5625 C 6.980469 37.929688 6.890625 36.75 7.523438 35.933594 C 8.15625 35.117188 9.328125 35.027344 10.144531 35.664062 C 10.910156 36.296875 11.046875 37.476562 10.414062 38.289062 Z M 40.058594 31.71875 C 34.683594 38.925781 23.113281 36.476562 15.746094 36.839844 C 15.746094 36.839844 14.4375 36.929688 13.125 37.113281 C 13.125 37.113281 13.621094 36.886719 14.253906 36.660156 C 19.453125 34.847656 21.894531 34.484375 25.054688 32.851562 C 30.976562 29.816406 36.898438 23.15625 38.070312 16.269531 C 35.8125 22.882812 28.941406 28.59375 22.707031 30.902344 C 18.414062 32.488281 10.683594 34.03125 10.683594 34.03125 L 10.367188 33.851562 C 5.125 31.265625 4.945312 19.847656 14.527344 16.175781 C 18.730469 14.546875 22.707031 15.453125 27.269531 14.363281 C 32.105469 13.230469 37.710938 9.605469 39.96875 4.847656 C 42.5 12.507812 45.574219 24.378906 40.058594 31.71875 Z M 40.058594 31.71875 "/>
<path style=" stroke:none;fill-rule:nonzero;fill:rgb(42.745098%,70.196078%,24.705882%);fill-opacity:1;" d="M 56.417969 30.632812 C 55.832031 30.269531 55.46875 29.636719 55.515625 28.957031 C 55.515625 27.867188 56.375 26.960938 57.457031 26.960938 C 57.457031 26.960938 57.457031 26.960938 57.503906 26.960938 C 57.867188 26.960938 58.226562 27.050781 58.542969 27.234375 C 60.351562 28.503906 62.476562 29.183594 64.644531 29.273438 C 66.722656 29.273438 67.941406 28.367188 67.941406 26.960938 L 67.941406 26.871094 C 67.941406 25.195312 65.683594 24.652344 63.199219 23.878906 C 60.078125 22.972656 56.554688 21.707031 56.554688 17.628906 L 56.554688 17.535156 C 56.554688 13.503906 59.898438 11.058594 64.101562 11.058594 C 66.453125 11.101562 68.710938 11.691406 70.789062 12.777344 C 71.511719 13.140625 71.964844 13.820312 71.964844 14.636719 C 71.964844 15.722656 71.0625 16.628906 69.976562 16.628906 L 69.929688 16.628906 C 69.613281 16.628906 69.300781 16.539062 68.984375 16.402344 C 67.445312 15.542969 65.773438 15.042969 64.011719 14.953125 C 62.113281 14.953125 61.027344 15.859375 61.027344 17.039062 L 61.027344 17.128906 C 61.027344 18.714844 63.332031 19.347656 65.820312 20.164062 C 68.9375 21.117188 72.417969 22.566406 72.417969 26.371094 L 72.417969 26.464844 C 72.417969 30.949219 68.9375 33.171875 64.554688 33.171875 C 61.660156 33.125 58.8125 32.261719 56.417969 30.632812 Z M 56.417969 30.632812 "/>
<path style=" stroke:none;fill-rule:nonzero;fill:rgb(42.745098%,70.196078%,24.705882%);fill-opacity:1;" d="M 74.226562 13.550781 C 74.179688 12.234375 75.265625 11.148438 76.574219 11.101562 L 76.621094 11.101562 C 77.976562 11.101562 79.058594 12.191406 79.058594 13.550781 L 79.058594 15 C 80.640625 12.777344 82.855469 11.011719 86.289062 11.011719 C 91.261719 11.011719 96.144531 14.953125 96.144531 22.066406 L 96.144531 22.160156 C 96.144531 29.226562 91.308594 33.214844 86.289062 33.214844 C 82.765625 33.214844 80.550781 31.449219 79.058594 29.453125 L 79.058594 36.976562 C 79.058594 38.335938 77.976562 39.421875 76.621094 39.421875 C 75.308594 39.421875 74.226562 38.335938 74.226562 37.023438 Z M 91.261719 22.160156 L 91.261719 22.066406 C 91.261719 17.945312 88.503906 15.269531 85.207031 15.269531 C 81.90625 15.269531 79.015625 18.035156 79.015625 22.066406 L 79.015625 22.160156 C 79.015625 26.238281 81.90625 28.957031 85.207031 28.957031 C 88.503906 28.957031 91.261719 26.371094 91.261719 22.160156 Z M 91.261719 22.160156 "/>
<path style=" stroke:none;fill-rule:nonzero;fill:rgb(42.745098%,70.196078%,24.705882%);fill-opacity:1;" d="M 98.039062 13.550781 C 97.996094 12.234375 99.078125 11.148438 100.390625 11.101562 L 100.4375 11.101562 C 101.792969 11.101562 102.875 12.191406 102.875 13.550781 L 102.875 14.726562 C 103.101562 12.914062 106.085938 11.101562 108.207031 11.101562 C 109.429688 11.011719 110.511719 11.917969 110.605469 13.140625 C 110.605469 13.277344 110.605469 13.367188 110.605469 13.503906 C 110.605469 14.683594 109.789062 15.679688 108.660156 15.859375 C 105.179688 16.449219 102.832031 19.484375 102.832031 23.699219 L 102.832031 30.722656 C 102.832031 32.082031 101.746094 33.125 100.390625 33.125 C 99.078125 33.125 97.996094 32.082031 97.996094 30.769531 C 97.996094 30.769531 97.996094 30.769531 97.996094 30.722656 Z M 98.039062 13.550781 "/>
<path style=" stroke:none;fill-rule:nonzero;fill:rgb(42.745098%,70.196078%,24.705882%);fill-opacity:1;" d="M 112.546875 13.59375 C 112.5 12.28125 113.585938 11.191406 114.898438 11.148438 L 114.941406 11.148438 C 116.296875 11.148438 117.382812 12.234375 117.382812 13.59375 L 117.382812 30.769531 C 117.382812 32.128906 116.296875 33.171875 114.941406 33.171875 C 113.585938 33.171875 112.546875 32.082031 112.546875 30.769531 Z M 112.546875 13.59375 "/>
<path style=" stroke:none;fill-rule:nonzero;fill:rgb(42.745098%,70.196078%,24.705882%);fill-opacity:1;" d="M 119.867188 13.59375 C 119.824219 12.28125 120.90625 11.191406 122.21875 11.148438 L 122.261719 11.148438 C 123.617188 11.148438 124.703125 12.234375 124.703125 13.59375 L 124.703125 14.589844 C 126.148438 12.324219 128.679688 11.011719 131.347656 11.101562 C 136.136719 11.101562 138.894531 14.320312 138.894531 19.257812 L 138.894531 30.722656 C 138.9375 32.035156 137.898438 33.078125 136.589844 33.125 C 136.542969 33.125 136.542969 33.125 136.5 33.125 C 135.1875 33.171875 134.101562 32.082031 134.058594 30.769531 L 134.058594 20.753906 C 134.058594 17.445312 132.429688 15.542969 129.492188 15.542969 C 126.691406 15.542969 124.703125 17.535156 124.703125 20.84375 L 124.703125 30.769531 C 124.703125 32.128906 123.617188 33.214844 122.261719 33.214844 C 120.90625 33.214844 119.824219 32.128906 119.824219 30.769531 Z M 119.867188 13.59375 "/>
<path style=" stroke:none;fill-rule:nonzero;fill:rgb(42.745098%,70.196078%,24.705882%);fill-opacity:1;" d="M 160.316406 11.058594 C 158.957031 11.058594 157.875 12.144531 157.875 13.503906 L 157.875 14.953125 C 156.292969 12.734375 154.078125 10.964844 150.644531 10.964844 C 145.671875 10.964844 140.792969 14.910156 140.792969 22.023438 L 140.792969 22.113281 C 140.792969 29.183594 145.628906 33.171875 150.644531 33.171875 C 154.167969 33.171875 156.382812 31.402344 157.875 29.453125 C 157.648438 33.304688 155.296875 35.300781 151.1875 35.300781 C 148.925781 35.300781 146.667969 34.757812 144.679688 33.625 C 144.40625 33.488281 144.136719 33.441406 143.820312 33.441406 C 142.691406 33.441406 141.785156 34.304688 141.742188 35.4375 C 141.742188 36.296875 142.28125 37.113281 143.097656 37.382812 C 145.671875 38.652344 148.472656 39.289062 151.320312 39.289062 C 155.164062 39.289062 158.144531 38.382812 160.042969 36.433594 C 161.804688 34.664062 162.753906 31.992188 162.753906 28.410156 L 162.753906 13.550781 C 162.800781 12.191406 161.714844 11.101562 160.359375 11.058594 C 160.359375 11.058594 160.316406 11.058594 160.316406 11.058594 Z M 151.773438 28.957031 C 148.429688 28.957031 145.71875 26.328125 145.71875 22.113281 L 145.71875 22.023438 C 145.71875 17.898438 148.472656 15.226562 151.773438 15.226562 C 155.074219 15.226562 157.964844 17.988281 157.964844 22.023438 L 157.964844 22.113281 C 158.011719 26.191406 155.117188 28.957031 151.773438 28.957031 Z M 151.773438 28.957031 "/>
<path style=" stroke:none;fill-rule:nonzero;fill:rgb(42.745098%,70.196078%,24.705882%);fill-opacity:1;" d="M 117.429688 5.257812 C 117.429688 6.617188 116.34375 7.703125 114.988281 7.703125 C 113.632812 7.703125 112.546875 6.617188 112.546875 5.257812 C 112.546875 3.898438 113.632812 2.808594 114.988281 2.808594 C 116.296875 2.765625 117.382812 3.851562 117.429688 5.164062 C 117.429688 5.210938 117.429688 5.210938 117.429688 5.257812 Z M 117.429688 5.257812 "/>
<path style=" stroke:none;fill-rule:nonzero;fill:rgb(42.745098%,70.196078%,24.705882%);fill-opacity:1;" d="M 168.3125 16.175781 C 166.957031 16.175781 165.828125 15.042969 165.828125 13.683594 C 165.828125 12.324219 166.957031 11.191406 168.3125 11.191406 C 169.667969 11.191406 170.800781 12.324219 170.800781 13.683594 C 170.800781 15.042969 169.667969 16.175781 168.3125 16.175781 Z M 168.3125 11.554688 C 167.136719 11.554688 166.1875 12.507812 166.1875 13.683594 C 166.1875 14.863281 167.136719 15.816406 168.3125 15.816406 C 169.488281 15.816406 170.4375 14.863281 170.4375 13.683594 C 170.4375 12.507812 169.535156 11.554688 168.359375 11.554688 Z M 168.992188 15.089844 L 168.269531 13.957031 L 167.769531 13.957031 L 167.769531 15.089844 L 167.363281 15.089844 L 167.363281 12.234375 L 168.539062 12.234375 C 169.035156 12.191406 169.441406 12.597656 169.488281 13.097656 C 169.488281 13.503906 169.171875 13.867188 168.765625 13.957031 L 169.535156 15.089844 Z M 168.496094 12.597656 L 167.769531 12.597656 L 167.769531 13.59375 L 168.539062 13.59375 C 168.808594 13.59375 169.035156 13.367188 169.035156 13.097656 C 169.035156 12.824219 168.808594 12.597656 168.496094 12.597656 Z M 168.496094 12.597656 "/>
<path style=" stroke:none;fill-rule:nonzero;fill:rgb(42.745098%,70.196078%,24.705882%);fill-opacity:1;" d="M 38.886719 36.160156 C 41.867188 32.625 43.675781 28.183594 43.992188 23.5625 "/>
<path style=" stroke:none;fill-rule:nonzero;fill:rgb(100%,100%,100%);fill-opacity:1;" d="M 40.058594 31.71875 C 34.683594 38.925781 23.113281 36.476562 15.746094 36.839844 C 15.746094 36.839844 14.4375 36.929688 13.125 37.113281 C 13.125 37.113281 13.621094 36.886719 14.253906 36.660156 C 19.453125 34.847656 21.894531 34.484375 25.054688 32.851562 C 30.976562 29.816406 36.898438 23.15625 38.070312 16.269531 C 35.8125 22.882812 28.941406 28.59375 22.707031 30.902344 C 18.414062 32.488281 10.683594 34.03125 10.683594 34.03125 L 10.367188 33.851562 C 5.125 31.265625 4.945312 19.847656 14.527344 16.175781 C 18.730469 14.546875 22.707031 15.453125 27.269531 14.363281 C 32.105469 13.230469 37.710938 9.605469 39.96875 4.847656 C 42.5 12.507812 45.574219 24.378906 40.058594 31.71875 Z M 40.058594 31.71875 "/>
<path style=" stroke:none;fill-rule:nonzero;fill:rgb(100%,100%,100%);fill-opacity:1;" d="M 10.414062 38.289062 C 9.78125 39.105469 8.605469 39.195312 7.792969 38.5625 C 6.980469 37.929688 6.890625 36.75 7.523438 35.933594 C 8.15625 35.117188 9.328125 35.027344 10.144531 35.664062 C 10.910156 36.296875 11.046875 37.476562 10.414062 38.289062 Z M 10.414062 38.289062 "/>
</g>
</svg>
