<?xml version="1.0" encoding="UTF-8"?>
<svg xmlns="http://www.w3.org/2000/svg" xmlns:xlink="http://www.w3.org/1999/xlink" width="px" height="100px" viewBox="0 0 100 100" version="1.1">
<g id="surface1">
<path style=" stroke:none;fill-rule:nonzero;fill:rgb(2.745098%,71.372549%,83.529412%);fill-opacity:1;" d="M 48.949219 22.648438 C 32.800781 23.164062 28 34.699219 26.898438 40.949219 C 28.332031 38.632812 32.851562 33.550781 39.5 33.550781 C 47.25 33.550781 53.148438 42.199219 56.75 44.898438 C 61.125 48.179688 69.914062 52.511719 81.449219 49 C 90.648438 46.199219 94.917969 36.433594 95.851562 31.800781 C 91.398438 37.851562 84.648438 41.484375 76.300781 37.199219 C 70.550781 34.25 66.25 22.101562 48.949219 22.648438 Z M 48.949219 22.648438 "/>
<path style=" stroke:none;fill-rule:nonzero;fill:rgb(2.745098%,71.372549%,83.529412%);fill-opacity:1;" d="M 26.101562 50.101562 C 9.949219 50.613281 5.148438 62.148438 4.050781 68.398438 C 5.484375 66.082031 10 61 16.648438 61 C 24.398438 61 30.300781 69.648438 33.898438 72.351562 C 38.273438 75.628906 47.0625 79.960938 58.601562 76.449219 C 67.800781 73.648438 72.066406 63.882812 73 59.25 C 68.550781 65.300781 61.800781 68.933594 53.449219 64.648438 C 47.699219 61.699219 43.398438 49.550781 26.101562 50.101562 Z M 26.101562 50.101562 "/>
</g>
</svg>
