<?xml version="1.0" encoding="UTF-8"?>
<svg xmlns="http://www.w3.org/2000/svg" xmlns:xlink="http://www.w3.org/1999/xlink" width="px" height="100px" viewBox="0 0 100 100" version="1.1">
<g id="surface1">
<path style=" stroke:none;fill-rule:nonzero;fill:rgb(14.901961%,30.196078%,89.411765%);fill-opacity:1;" d="M 85.410156 19.652344 L 78.953125 91.957031 L 49.929688 100 L 20.988281 91.96875 L 14.539062 19.652344 Z M 85.410156 19.652344 "/>
<path style=" stroke:none;fill-rule:nonzero;fill:rgb(16.078431%,39.607843%,94.509804%);fill-opacity:1;" d="M 73.425781 87.351562 L 78.941406 25.566406 L 49.976562 25.566406 L 49.976562 93.851562 Z M 73.425781 87.351562 "/>
<path style=" stroke:none;fill-rule:nonzero;fill:rgb(92.156863%,92.156863%,92.156863%);fill-opacity:1;" d="M 29.324219 52.386719 L 30.121094 61.257812 L 49.976562 61.257812 L 49.976562 52.386719 Z M 29.324219 52.386719 "/>
<path style=" stroke:none;fill-rule:nonzero;fill:rgb(92.156863%,92.156863%,92.156863%);fill-opacity:1;" d="M 49.976562 34.4375 L 27.726562 34.4375 L 28.53125 43.304688 L 49.976562 43.304688 Z M 49.976562 34.4375 "/>
<path style=" stroke:none;fill-rule:nonzero;fill:rgb(92.156863%,92.156863%,92.156863%);fill-opacity:1;" d="M 49.976562 84.648438 L 49.976562 75.421875 L 49.9375 75.433594 L 40.054688 72.765625 L 39.421875 65.6875 L 30.515625 65.6875 L 31.757812 79.617188 L 49.933594 84.660156 Z M 49.976562 84.648438 "/>
<path style=" stroke:none;fill-rule:nonzero;fill:rgb(0%,0%,0%);fill-opacity:1;" d="M 31.214844 0 L 41.964844 0 L 41.964844 4.492188 L 35.710938 4.492188 L 35.710938 8.984375 L 41.964844 8.984375 L 41.964844 13.476562 L 31.214844 13.476562 Z M 31.214844 0 "/>
<path style=" stroke:none;fill-rule:nonzero;fill:rgb(0%,0%,0%);fill-opacity:1;" d="M 44.113281 0 L 54.859375 0 L 54.859375 3.90625 L 48.605469 3.90625 L 48.605469 4.6875 L 54.859375 4.6875 L 54.859375 13.671875 L 44.113281 13.671875 L 44.113281 9.570312 L 50.367188 9.570312 L 50.367188 8.789062 L 44.113281 8.789062 Z M 44.113281 0 "/>
<path style=" stroke:none;fill-rule:nonzero;fill:rgb(0%,0%,0%);fill-opacity:1;" d="M 57.007812 0 L 67.753906 0 L 67.753906 3.90625 L 61.503906 3.90625 L 61.503906 4.6875 L 67.753906 4.6875 L 67.753906 13.671875 L 57.007812 13.671875 L 57.007812 9.570312 L 63.257812 9.570312 L 63.257812 8.789062 L 57.007812 8.789062 Z M 57.007812 0 "/>
<path style=" stroke:none;fill-rule:nonzero;fill:rgb(100%,100%,100%);fill-opacity:1;" d="M 60.867188 61.257812 L 59.835938 72.757812 L 49.945312 75.425781 L 49.945312 84.65625 L 68.132812 79.617188 L 68.265625 78.117188 L 70.351562 54.769531 L 70.566406 52.386719 L 72.167969 34.4375 L 49.945312 34.4375 L 49.945312 43.304688 L 62.445312 43.304688 L 61.636719 52.386719 L 49.945312 52.386719 L 49.945312 61.257812 Z M 60.867188 61.257812 "/>
</g>
</svg>
