<?xml version="1.0" encoding="UTF-8"?>
<svg xmlns="http://www.w3.org/2000/svg" xmlns:xlink="http://www.w3.org/1999/xlink" width="px" height="100px" viewBox="0 0 100 100" version="1.1">
<g id="surface1">
<path style=" stroke:none;fill-rule:nonzero;fill:rgb(0%,0%,0%);fill-opacity:1;" d="M 21.171875 0 L 25.664062 0 L 25.664062 4.453125 L 29.804688 4.453125 L 29.804688 0 L 34.296875 0 L 34.296875 13.476562 L 29.804688 13.476562 L 29.804688 8.984375 L 25.703125 8.984375 L 25.703125 13.476562 L 21.171875 13.476562 M 40.234375 4.492188 L 36.269531 4.492188 L 36.269531 0 L 48.710938 0 L 48.710938 4.492188 L 44.726562 4.492188 L 44.726562 13.476562 L 40.234375 13.476562 M 50.683594 0 L 55.390625 0 L 58.28125 4.746094 L 61.171875 0 L 65.878906 0 L 65.878906 13.476562 L 61.386719 13.476562 L 61.386719 6.796875 L 58.242188 11.640625 L 55.097656 6.796875 L 55.097656 13.476562 L 50.683594 13.476562 M 68.105469 0 L 72.597656 0 L 72.597656 9.023438 L 78.964844 9.023438 L 78.964844 13.476562 L 68.105469 13.476562 "/>
<path style=" stroke:none;fill-rule:nonzero;fill:rgb(89.411765%,30.196078%,14.901961%);fill-opacity:1;" d="M 21.015625 91.992188 L 14.570312 19.648438 L 85.429688 19.648438 L 78.984375 91.953125 L 49.941406 100 "/>
<path style=" stroke:none;fill-rule:nonzero;fill:rgb(94.509804%,39.607843%,16.078431%);fill-opacity:1;" d="M 50 93.847656 L 50 25.585938 L 78.964844 25.585938 L 73.4375 87.304688 "/>
<path style=" stroke:none;fill-rule:nonzero;fill:rgb(92.156863%,92.156863%,92.156863%);fill-opacity:1;" d="M 27.734375 34.433594 L 50 34.433594 L 50 43.300781 L 37.460938 43.300781 L 38.28125 52.382812 L 50 52.382812 L 50 61.230469 L 30.15625 61.230469 M 30.546875 65.683594 L 39.453125 65.683594 L 40.078125 72.773438 L 50 75.429688 L 50 84.6875 L 31.796875 79.609375 "/>
<path style=" stroke:none;fill-rule:nonzero;fill:rgb(100%,100%,100%);fill-opacity:1;" d="M 72.1875 34.433594 L 49.960938 34.433594 L 49.960938 43.300781 L 71.367188 43.300781 M 70.566406 52.382812 L 49.960938 52.382812 L 49.960938 61.25 L 60.898438 61.25 L 59.863281 72.773438 L 49.960938 75.429688 L 49.960938 84.648438 L 68.125 79.609375 "/>
</g>
</svg>
