<?xml version="1.0" encoding="UTF-8"?>
<svg xmlns="http://www.w3.org/2000/svg" xmlns:xlink="http://www.w3.org/1999/xlink" width="px" height="100px" viewBox="0 0 54 100" version="1.1">
<g id="surface1">
<path style=" stroke:none;fill-rule:evenodd;fill:rgb(0%,45.490196%,74.117647%);fill-opacity:1;" d="M 17.871094 53.050781 C 17.871094 53.050781 15.234375 54.574219 19.746094 55.089844 C 25.210938 55.707031 28.003906 55.621094 34.023438 54.488281 C 34.023438 54.488281 35.609375 55.476562 37.820312 56.328125 C 24.320312 62.082031 7.265625 55.996094 17.871094 53.050781 Z M 17.871094 53.050781 "/>
<path style=" stroke:none;fill-rule:evenodd;fill:rgb(0%,45.490196%,74.117647%);fill-opacity:1;" d="M 16.21875 45.539062 C 16.21875 45.539062 13.265625 47.714844 17.78125 48.179688 C 23.617188 48.777344 28.226562 48.828125 36.207031 47.300781 C 36.207031 47.300781 37.304688 48.414062 39.039062 49.019531 C 22.71875 53.769531 4.542969 49.394531 16.21875 45.539062 Z M 16.21875 45.539062 "/>
<path style=" stroke:none;fill-rule:evenodd;fill:rgb(91.764706%,17.647059%,18.039216%);fill-opacity:1;" d="M 30.125 32.800781 C 33.453125 36.609375 29.253906 40.035156 29.253906 40.035156 C 29.253906 40.035156 37.699219 35.699219 33.820312 30.265625 C 30.199219 25.203125 27.417969 22.6875 42.460938 14.011719 C 42.460938 14.011719 18.851562 19.875 30.125 32.800781 Z M 30.125 32.800781 "/>
<path style=" stroke:none;fill-rule:evenodd;fill:rgb(0%,45.490196%,74.117647%);fill-opacity:1;" d="M 47.980469 58.605469 C 47.980469 58.605469 49.929688 60.203125 45.835938 61.4375 C 38.042969 63.789062 13.402344 64.496094 6.558594 61.535156 C 4.101562 60.46875 8.710938 58.992188 10.164062 58.679688 C 11.675781 58.355469 12.539062 58.414062 12.539062 58.414062 C 9.804688 56.496094 -5.144531 62.179688 4.949219 63.804688 C 32.472656 68.246094 55.121094 61.808594 47.980469 58.605469 Z M 47.980469 58.605469 "/>
<path style=" stroke:none;fill-rule:evenodd;fill:rgb(0%,45.490196%,74.117647%);fill-opacity:1;" d="M 19.136719 37.757812 C 19.136719 37.757812 6.605469 40.71875 14.699219 41.796875 C 18.121094 42.25 24.929688 42.144531 31.28125 41.617188 C 36.46875 41.183594 41.671875 40.257812 41.671875 40.257812 C 41.671875 40.257812 39.84375 41.035156 38.519531 41.933594 C 25.792969 45.265625 1.207031 43.714844 8.285156 40.308594 C 14.269531 37.429688 19.136719 37.757812 19.136719 37.757812 Z M 19.136719 37.757812 "/>
<path style=" stroke:none;fill-rule:evenodd;fill:rgb(0%,45.490196%,74.117647%);fill-opacity:1;" d="M 41.621094 50.257812 C 54.558594 43.570312 48.578125 37.144531 44.398438 38.011719 C 43.378906 38.222656 42.921875 38.40625 42.921875 38.40625 C 42.921875 38.40625 43.300781 37.8125 44.027344 37.558594 C 52.289062 34.671875 58.636719 46.078125 41.363281 50.597656 C 41.363281 50.597656 41.5625 50.417969 41.621094 50.257812 Z M 41.621094 50.257812 "/>
<path style=" stroke:none;fill-rule:evenodd;fill:rgb(91.764706%,17.647059%,18.039216%);fill-opacity:1;" d="M 33.820312 0 C 33.820312 0 40.984375 7.128906 27.023438 18.09375 C 15.828125 26.886719 24.472656 31.902344 27.019531 37.632812 C 20.484375 31.769531 15.691406 26.605469 18.90625 21.800781 C 23.628906 14.746094 36.710938 11.324219 33.820312 0 Z M 33.820312 0 "/>
<path style=" stroke:none;fill-rule:evenodd;fill:rgb(0%,45.490196%,74.117647%);fill-opacity:1;" d="M 20.410156 68.382812 C 32.824219 69.171875 51.898438 67.941406 52.351562 62.097656 C 52.351562 62.097656 51.480469 64.3125 42.089844 66.074219 C 31.488281 68.058594 18.414062 67.824219 10.660156 66.550781 C 10.660156 66.550781 12.25 67.859375 20.410156 68.382812 Z M 20.410156 68.382812 "/>
<path style=" stroke:none;fill-rule:evenodd;fill:rgb(91.764706%,17.647059%,18.039216%);fill-opacity:1;" d="M 51.777344 78.863281 L 51.398438 78.863281 L 51.398438 78.652344 L 52.417969 78.652344 L 52.417969 78.863281 L 52.039062 78.863281 L 52.039062 79.917969 L 51.777344 79.917969 Z M 53.808594 78.917969 L 53.804688 78.917969 L 53.429688 79.917969 L 53.257812 79.917969 L 52.882812 78.917969 L 52.878906 78.917969 L 52.878906 79.917969 L 52.632812 79.917969 L 52.632812 78.652344 L 52.996094 78.652344 L 53.34375 79.546875 L 53.6875 78.652344 L 54.050781 78.652344 L 54.050781 79.917969 L 53.808594 79.917969 Z M 53.808594 78.917969 "/>
<path style=" stroke:none;fill-rule:evenodd;fill:rgb(91.764706%,17.647059%,18.039216%);fill-opacity:1;" d="M 18.375 90.714844 C 17.203125 91.726562 15.964844 92.292969 14.855469 92.292969 C 13.273438 92.292969 12.414062 91.347656 12.414062 89.832031 C 12.414062 88.191406 13.332031 86.992188 17.015625 86.992188 L 18.375 86.992188 Z M 21.609375 94.34375 L 21.609375 83.113281 C 21.609375 80.242188 19.964844 78.351562 15.996094 78.351562 C 13.683594 78.351562 11.652344 78.917969 10.003906 79.644531 L 10.480469 81.632812 C 11.777344 81.15625 13.457031 80.714844 15.105469 80.714844 C 17.390625 80.714844 18.375 81.632812 18.375 83.523438 L 18.375 84.945312 L 17.234375 84.945312 C 11.683594 84.945312 9.179688 87.085938 9.179688 90.304688 C 9.179688 93.082031 10.828125 94.660156 13.9375 94.660156 C 15.933594 94.660156 17.425781 93.839844 18.816406 92.640625 L 19.074219 94.34375 Z M 21.609375 94.34375 "/>
<path style=" stroke:none;fill-rule:evenodd;fill:rgb(91.764706%,17.647059%,18.039216%);fill-opacity:1;" d="M 32.394531 94.34375 L 28.363281 94.34375 L 23.511719 78.636719 L 27.03125 78.636719 L 30.042969 88.289062 L 30.710938 91.1875 C 32.234375 86.992188 33.3125 82.734375 33.851562 78.636719 L 37.273438 78.636719 C 36.359375 83.808594 34.707031 89.484375 32.394531 94.34375 Z M 32.394531 94.34375 "/>
<path style=" stroke:none;fill-rule:evenodd;fill:rgb(91.764706%,17.647059%,18.039216%);fill-opacity:1;" d="M 47.863281 90.714844 C 46.6875 91.726562 45.449219 92.292969 44.339844 92.292969 C 42.753906 92.292969 41.894531 91.347656 41.894531 89.832031 C 41.894531 88.191406 42.816406 86.992188 46.496094 86.992188 L 47.863281 86.992188 Z M 51.09375 94.34375 L 51.09375 83.113281 C 51.09375 80.242188 49.445312 78.351562 45.480469 78.351562 C 43.167969 78.351562 41.136719 78.917969 39.488281 79.644531 L 39.964844 81.632812 C 41.261719 81.15625 42.945312 80.714844 44.59375 80.714844 C 46.875 80.714844 47.863281 81.632812 47.863281 83.523438 L 47.863281 84.945312 L 46.71875 84.945312 C 41.167969 84.945312 38.664062 87.085938 38.664062 90.304688 C 38.664062 93.082031 40.3125 94.660156 43.417969 94.660156 C 45.417969 94.660156 46.90625 93.839844 48.300781 92.640625 L 48.558594 94.34375 Z M 51.09375 94.34375 "/>
<path style=" stroke:none;fill-rule:evenodd;fill:rgb(91.764706%,17.647059%,18.039216%);fill-opacity:1;" d="M 5.632812 97.011719 C 4.714844 98.347656 3.226562 99.410156 1.597656 100.007812 L 0 98.140625 C 1.242188 97.503906 2.304688 96.480469 2.800781 95.53125 C 3.226562 94.683594 3.402344 93.59375 3.402344 90.980469 L 3.402344 73.050781 L 6.839844 73.050781 L 6.839844 90.734375 C 6.839844 94.226562 6.558594 95.636719 5.632812 97.011719 Z M 5.632812 97.011719 "/>
</g>
</svg>
