<?xml version="1.0" encoding="UTF-8"?>
<svg xmlns="http://www.w3.org/2000/svg" xmlns:xlink="http://www.w3.org/1999/xlink" width="px" height="100px" viewBox="0 0 100 100" version="1.1">
<defs>
<clipPath id="clip1">
  <path d="M 1 24 L 99 24 L 99 76 L 1 76 Z M 1 24 "/>
</clipPath>
<clipPath id="clip2">
  <path d="M 1.40625 49.972656 C 1.40625 64.089844 23.167969 75.539062 50.015625 75.539062 C 76.859375 75.539062 98.621094 64.089844 98.621094 49.972656 C 98.621094 35.851562 76.859375 24.40625 50.015625 24.40625 C 23.167969 24.40625 1.40625 35.851562 1.40625 49.972656 "/>
</clipPath>
<radialGradient id="radial0" gradientUnits="userSpaceOnUse" cx="0" cy="0" fx="0" fy="0" r="1" gradientTransform="matrix(63.828743,0,0,63.81877,30.590721,33.394274)">
<stop offset="0" style="stop-color:rgb(68.235294%,69.803922%,83.529412%);stop-opacity:1;"/>
<stop offset="0.3" style="stop-color:rgb(68.235294%,69.803922%,83.529412%);stop-opacity:1;"/>
<stop offset="0.75" style="stop-color:rgb(28.235294%,29.803922%,53.72549%);stop-opacity:1;"/>
<stop offset="1" style="stop-color:rgb(28.235294%,29.803922%,53.72549%);stop-opacity:1;"/>
</radialGradient>
</defs>
<g id="surface1">
<g clip-path="url(#clip1)" clip-rule="nonzero">
<g clip-path="url(#clip2)" clip-rule="nonzero">
<path style=" stroke:none;fill-rule:nonzero;fill:url(#radial0);" d="M 1.40625 49.972656 C 1.40625 64.089844 23.167969 75.539062 50.015625 75.539062 C 76.859375 75.539062 98.621094 64.089844 98.621094 49.972656 C 98.621094 35.851562 76.859375 24.40625 50.015625 24.40625 C 23.167969 24.40625 1.40625 35.851562 1.40625 49.972656 "/>
</g>
</g>
<path style=" stroke:none;fill-rule:nonzero;fill:rgb(46.666667%,48.235294%,70.196078%);fill-opacity:1;" d="M 50.015625 73.640625 C 75.808594 73.640625 96.722656 63.042969 96.722656 49.972656 C 96.722656 36.902344 75.808594 26.304688 50.015625 26.304688 C 24.21875 26.304688 3.304688 36.902344 3.304688 49.972656 C 3.304688 63.042969 24.21875 73.640625 50.015625 73.640625 "/>
<path style=" stroke:none;fill-rule:nonzero;fill:rgb(0%,0%,0%);fill-opacity:1;" d="M 27.816406 52.90625 C 29.9375 52.90625 31.519531 52.515625 32.523438 51.742188 C 33.511719 50.980469 34.199219 49.660156 34.558594 47.816406 C 34.890625 46.089844 34.765625 44.886719 34.179688 44.238281 C 33.578125 43.574219 32.285156 43.238281 30.328125 43.238281 L 26.9375 43.238281 L 25.058594 52.90625 Z M 16.726562 64.816406 C 16.570312 64.816406 16.421875 64.746094 16.320312 64.625 C 16.222656 64.5 16.179688 64.34375 16.210938 64.1875 L 21.191406 38.566406 C 21.238281 38.320312 21.457031 38.140625 21.707031 38.140625 L 32.441406 38.140625 C 35.816406 38.140625 38.328125 39.054688 39.90625 40.863281 C 41.492188 42.679688 41.980469 45.21875 41.363281 48.40625 C 41.109375 49.707031 40.675781 50.914062 40.070312 51.996094 C 39.464844 53.078125 38.667969 54.078125 37.695312 54.972656 C 36.53125 56.058594 35.214844 56.847656 33.785156 57.3125 C 32.378906 57.769531 30.574219 58.003906 28.414062 58.003906 L 24.070312 58.003906 L 22.828125 64.386719 C 22.78125 64.636719 22.5625 64.816406 22.3125 64.816406 Z M 16.726562 64.816406 "/>
<path style=" stroke:none;fill-rule:nonzero;fill:rgb(100%,100%,100%);fill-opacity:1;" d="M 27.375 43.765625 L 30.328125 43.765625 C 32.6875 43.765625 33.507812 44.28125 33.785156 44.589844 C 34.25 45.105469 34.335938 46.183594 34.039062 47.714844 C 33.707031 49.429688 33.085938 50.644531 32.199219 51.324219 C 31.292969 52.023438 29.816406 52.378906 27.816406 52.378906 L 25.699219 52.378906 Z M 32.441406 37.613281 L 21.707031 37.613281 C 21.203125 37.613281 20.769531 37.972656 20.671875 38.464844 L 15.691406 64.085938 C 15.632812 64.394531 15.714844 64.714844 15.914062 64.957031 C 16.113281 65.203125 16.414062 65.34375 16.726562 65.34375 L 22.308594 65.34375 C 22.816406 65.34375 23.25 64.984375 23.347656 64.488281 L 24.503906 58.53125 L 28.414062 58.53125 C 30.628906 58.53125 32.488281 58.289062 33.949219 57.8125 C 35.453125 57.328125 36.832031 56.5 38.054688 55.355469 C 39.066406 54.425781 39.898438 53.382812 40.53125 52.253906 C 41.164062 51.121094 41.617188 49.863281 41.878906 48.507812 C 42.53125 45.148438 42 42.460938 40.300781 40.515625 C 38.621094 38.589844 35.976562 37.613281 32.441406 37.613281 M 24.421875 53.433594 L 27.816406 53.433594 C 30.066406 53.433594 31.742188 53.007812 32.84375 52.160156 C 33.945312 51.3125 34.6875 49.898438 35.074219 47.914062 C 35.445312 46.011719 35.277344 44.667969 34.570312 43.886719 C 33.863281 43.101562 32.449219 42.710938 30.328125 42.710938 L 26.503906 42.710938 L 24.421875 53.433594 M 32.441406 38.667969 C 35.671875 38.667969 38.027344 39.515625 39.507812 41.210938 C 40.988281 42.90625 41.433594 45.269531 40.84375 48.308594 C 40.601562 49.558594 40.1875 50.703125 39.609375 51.738281 C 39.03125 52.773438 38.273438 53.722656 37.339844 54.582031 C 36.222656 55.625 34.984375 56.367188 33.625 56.8125 C 32.261719 57.253906 30.527344 57.476562 28.414062 57.476562 L 23.632812 57.476562 L 22.308594 64.289062 L 16.726562 64.289062 L 21.707031 38.667969 L 32.441406 38.667969 "/>
<path style=" stroke:none;fill-rule:nonzero;fill:rgb(0%,0%,0%);fill-opacity:1;" d="M 54.160156 58.003906 C 54.003906 58.003906 53.851562 57.933594 53.753906 57.8125 C 53.652344 57.691406 53.613281 57.53125 53.640625 57.375 L 55.84375 46.039062 C 56.054688 44.960938 56.003906 44.1875 55.699219 43.859375 C 55.515625 43.660156 54.957031 43.324219 53.308594 43.324219 L 49.316406 43.324219 L 46.546875 57.578125 C 46.5 57.824219 46.28125 58.003906 46.027344 58.003906 L 40.492188 58.003906 C 40.332031 58.003906 40.183594 57.933594 40.085938 57.8125 C 39.984375 57.691406 39.941406 57.53125 39.972656 57.375 L 44.953125 31.753906 C 45 31.507812 45.21875 31.328125 45.472656 31.328125 L 51.007812 31.328125 C 51.167969 31.328125 51.316406 31.398438 51.417969 31.519531 C 51.515625 31.640625 51.558594 31.800781 51.527344 31.957031 L 50.324219 38.140625 L 54.617188 38.140625 C 57.890625 38.140625 60.109375 38.71875 61.398438 39.902344 C 62.714844 41.113281 63.128906 43.046875 62.621094 45.65625 L 60.304688 57.578125 C 60.253906 57.824219 60.039062 58.003906 59.785156 58.003906 Z M 54.160156 58.003906 "/>
<path style=" stroke:none;fill-rule:nonzero;fill:rgb(100%,100%,100%);fill-opacity:1;" d="M 51.007812 30.800781 L 45.472656 30.800781 C 44.964844 30.800781 44.53125 31.160156 44.4375 31.65625 L 39.457031 57.273438 C 39.394531 57.585938 39.476562 57.902344 39.675781 58.148438 C 39.878906 58.390625 40.175781 58.53125 40.492188 58.53125 L 46.027344 58.53125 C 46.535156 58.53125 46.96875 58.171875 47.066406 57.675781 L 49.75 43.851562 L 53.308594 43.851562 C 54.953125 43.851562 55.300781 44.203125 55.3125 44.21875 C 55.414062 44.328125 55.542969 44.824219 55.328125 45.9375 L 53.125 57.273438 C 53.066406 57.585938 53.144531 57.902344 53.347656 58.148438 C 53.546875 58.390625 53.84375 58.53125 54.160156 58.53125 L 59.785156 58.53125 C 60.289062 58.53125 60.726562 58.171875 60.820312 57.675781 L 63.136719 45.753906 C 63.683594 42.957031 63.21875 40.855469 61.757812 39.515625 C 60.363281 38.234375 58.027344 37.613281 54.617188 37.613281 L 50.964844 37.613281 L 52.042969 32.058594 C 52.105469 31.75 52.023438 31.429688 51.824219 31.183594 C 51.621094 30.941406 51.324219 30.800781 51.007812 30.800781 M 51.007812 31.855469 L 49.683594 38.667969 L 54.617188 38.667969 C 57.722656 38.667969 59.863281 39.210938 61.042969 40.292969 C 62.222656 41.375 62.574219 43.128906 62.101562 45.554688 L 59.785156 57.476562 L 54.160156 57.476562 L 56.363281 46.140625 C 56.613281 44.851562 56.523438 43.972656 56.085938 43.503906 C 55.652344 43.035156 54.726562 42.796875 53.308594 42.796875 L 48.882812 42.796875 L 46.027344 57.476562 L 40.492188 57.476562 L 45.472656 31.855469 L 51.007812 31.855469 "/>
<path style=" stroke:none;fill-rule:nonzero;fill:rgb(0%,0%,0%);fill-opacity:1;" d="M 71.382812 52.90625 C 73.503906 52.90625 75.089844 52.515625 76.089844 51.742188 C 77.082031 50.980469 77.765625 49.660156 78.125 47.816406 C 78.460938 46.089844 78.332031 44.886719 77.746094 44.238281 C 77.148438 43.574219 75.851562 43.238281 73.898438 43.238281 L 70.507812 43.238281 L 68.628906 52.90625 Z M 60.296875 64.816406 C 60.140625 64.816406 59.988281 64.746094 59.890625 64.625 C 59.789062 64.5 59.75 64.34375 59.777344 64.1875 L 64.757812 38.566406 C 64.808594 38.320312 65.023438 38.140625 65.277344 38.140625 L 76.011719 38.140625 C 79.382812 38.140625 81.894531 39.054688 83.472656 40.863281 C 85.058594 42.679688 85.550781 45.21875 84.929688 48.40625 C 84.675781 49.707031 84.242188 50.914062 83.640625 51.996094 C 83.035156 53.078125 82.234375 54.078125 81.265625 54.972656 C 80.101562 56.058594 78.785156 56.847656 77.355469 57.3125 C 75.949219 57.769531 74.140625 58.003906 71.984375 58.003906 L 67.636719 58.003906 L 66.398438 64.386719 C 66.347656 64.636719 66.132812 64.816406 65.878906 64.816406 Z M 60.296875 64.816406 "/>
<path style=" stroke:none;fill-rule:nonzero;fill:rgb(100%,100%,100%);fill-opacity:1;" d="M 70.941406 43.765625 L 73.898438 43.765625 C 76.257812 43.765625 77.078125 44.28125 77.355469 44.589844 C 77.816406 45.105469 77.902344 46.183594 77.605469 47.714844 C 77.273438 49.429688 76.65625 50.644531 75.769531 51.324219 C 74.859375 52.023438 73.386719 52.378906 71.382812 52.378906 L 69.269531 52.378906 Z M 76.011719 37.613281 L 65.277344 37.613281 C 64.773438 37.613281 64.339844 37.972656 64.242188 38.464844 L 59.261719 64.085938 C 59.203125 64.394531 59.28125 64.714844 59.484375 64.957031 C 59.683594 65.203125 59.980469 65.34375 60.296875 65.34375 L 65.878906 65.34375 C 66.382812 65.34375 66.816406 64.984375 66.914062 64.488281 L 68.074219 58.53125 L 71.984375 58.53125 C 74.195312 58.53125 76.058594 58.289062 77.519531 57.8125 C 79.019531 57.328125 80.402344 56.5 81.625 55.355469 C 82.636719 54.425781 83.46875 53.382812 84.097656 52.253906 C 84.730469 51.121094 85.183594 49.863281 85.449219 48.507812 C 86.101562 45.148438 85.570312 42.460938 83.871094 40.515625 C 82.1875 38.589844 79.542969 37.613281 76.011719 37.613281 M 67.988281 53.433594 L 71.382812 53.433594 C 73.632812 53.433594 75.308594 53.007812 76.410156 52.160156 C 77.515625 51.3125 78.257812 49.898438 78.644531 47.914062 C 79.011719 46.011719 78.84375 44.667969 78.136719 43.886719 C 77.429688 43.101562 76.019531 42.710938 73.898438 42.710938 L 70.074219 42.710938 L 67.988281 53.433594 M 76.011719 38.667969 C 79.238281 38.667969 81.59375 39.515625 83.078125 41.210938 C 84.558594 42.90625 85.003906 45.269531 84.410156 48.308594 C 84.167969 49.558594 83.757812 50.703125 83.179688 51.738281 C 82.597656 52.773438 81.84375 53.722656 80.90625 54.582031 C 79.792969 55.625 78.554688 56.367188 77.191406 56.8125 C 75.828125 57.253906 74.09375 57.476562 71.984375 57.476562 L 67.203125 57.476562 L 65.878906 64.289062 L 60.296875 64.289062 L 65.277344 38.667969 L 76.011719 38.667969 "/>
</g>
</svg>
