<?xml version="1.0" encoding="UTF-8"?>
<svg xmlns="http://www.w3.org/2000/svg" xmlns:xlink="http://www.w3.org/1999/xlink" width="px" height="100px" viewBox="0 0 88 100" version="1.1">
<g id="surface1">
<path style=" stroke:none;fill-rule:nonzero;fill:rgb(72.54902%,78.431373%,81.568627%);fill-opacity:1;" d="M 9.15625 71.867188 C 3.730469 69.148438 0.449219 65.605469 0.449219 61.703125 L 0.449219 82.035156 C 0.449219 88.152344 8.589844 93.472656 20.492188 96.042969 L 20.492188 75.710938 C 16.136719 74.765625 12.289062 73.464844 9.15625 71.867188 Z M 9.15625 71.867188 "/>
<path style=" stroke:none;fill-rule:nonzero;fill:rgb(72.54902%,78.431373%,81.568627%);fill-opacity:1;" d="M 11.664062 50.414062 C 10.679688 50 9.726562 49.585938 8.859375 49.113281 C 3.640625 46.394531 0.476562 42.90625 0.476562 39.09375 L 0.476562 59.101562 C 0.476562 59.546875 0.535156 59.960938 0.597656 60.402344 C 1.371094 64.421875 5.609375 67.996094 12.050781 70.566406 C 14.558594 71.574219 17.390625 72.429688 20.492188 73.109375 L 20.492188 53.074219 C 17.242188 52.394531 14.257812 51.476562 11.664062 50.414062 Z M 11.664062 50.414062 "/>
<path style=" stroke:none;fill-rule:nonzero;fill:rgb(55.686275%,64.705882%,68.627451%);fill-opacity:1;" d="M 36.78125 0.53125 C 16.707031 0.53125 0.449219 7.535156 0.449219 16.191406 C 0.449219 20.0625 3.730469 23.609375 9.128906 26.359375 C 10.023438 26.800781 10.976562 27.246094 11.992188 27.660156 C 14.496094 28.664062 17.363281 29.519531 20.464844 30.199219 L 27.445312 23.964844 L 30.664062 21.066406 L 36.09375 16.191406 L 51.964844 1.949219 C 47.339844 1.03125 42.210938 0.53125 36.78125 0.53125 Z M 36.78125 0.53125 "/>
<path style=" stroke:none;fill-rule:nonzero;fill:rgb(72.54902%,78.431373%,81.568627%);fill-opacity:1;" d="M 12.023438 27.660156 C 11.007812 27.246094 10.054688 26.832031 9.15625 26.359375 C 3.730469 23.609375 0.449219 20.0625 0.449219 16.191406 L 0.449219 36.496094 C 0.449219 36.9375 0.507812 37.351562 0.566406 37.796875 C 1.3125 41.726562 5.398438 45.242188 11.632812 47.8125 C 12.765625 48.285156 13.929688 48.699219 15.183594 49.113281 C 16.855469 49.644531 18.613281 50.117188 20.464844 50.503906 L 20.464844 30.171875 C 17.390625 29.519531 14.527344 28.664062 12.023438 27.660156 Z M 12.023438 27.660156 "/>
<path style=" stroke:none;fill-rule:nonzero;fill:rgb(67.058824%,72.156863%,75.294118%);fill-opacity:1;" d="M 42.984375 82.0625 C 42.628906 80.496094 42.417969 78.871094 42.390625 77.21875 C 40.570312 77.335938 38.691406 77.394531 36.75 77.394531 C 33.769531 77.394531 30.875 77.246094 28.101562 76.953125 C 25.414062 76.65625 22.878906 76.273438 20.464844 75.738281 L 20.464844 96.070312 C 20.851562 96.160156 21.238281 96.25 21.65625 96.308594 C 26.25 97.222656 31.382812 97.726562 36.75 97.726562 C 42.628906 97.726562 48.175781 97.105469 53.097656 96.042969 C 48.085938 92.9375 44.386719 87.945312 42.984375 82.0625 Z M 42.984375 82.0625 "/>
<path style=" stroke:none;fill-rule:nonzero;fill:rgb(50.588235%,59.607843%,62.352941%);fill-opacity:1;" d="M 53.007812 2.183594 C 52.652344 2.097656 52.324219 2.035156 51.964844 1.976562 L 36.09375 16.191406 L 30.664062 21.066406 L 27.445312 23.964844 L 20.492188 30.199219 C 25.386719 31.265625 30.933594 31.855469 36.78125 31.855469 C 38.988281 31.855469 41.136719 31.765625 43.222656 31.617188 C 50.234375 31.085938 56.558594 29.667969 61.570312 27.660156 C 62.585938 27.246094 63.539062 26.832031 64.433594 26.359375 C 69.832031 23.609375 73.085938 20.0625 73.085938 16.191406 C 73.085938 10.046875 64.910156 4.753906 53.007812 2.183594 Z M 53.007812 2.183594 "/>
<path style=" stroke:none;fill-rule:nonzero;fill:rgb(67.058824%,72.156863%,75.294118%);fill-opacity:1;" d="M 64.402344 26.359375 C 63.507812 26.800781 62.554688 27.246094 61.539062 27.660156 C 56.527344 29.667969 50.234375 31.085938 43.195312 31.617188 C 41.105469 31.765625 38.957031 31.855469 36.75 31.855469 C 30.90625 31.855469 25.355469 31.265625 20.464844 30.199219 L 20.464844 50.53125 C 25.238281 51.566406 30.636719 52.15625 36.332031 52.1875 C 36.484375 52.1875 36.601562 52.1875 36.75 52.1875 C 44.835938 52.1875 52.292969 51.035156 58.320312 49.113281 C 59.570312 48.699219 60.765625 48.285156 61.867188 47.8125 C 68.074219 45.242188 72.191406 41.726562 72.9375 37.796875 C 73.023438 37.382812 73.054688 36.9375 73.054688 36.496094 L 73.054688 16.191406 C 73.085938 20.0625 69.832031 23.609375 64.402344 26.359375 Z M 64.402344 26.359375 "/>
<path style=" stroke:none;fill-rule:nonzero;fill:rgb(50.588235%,59.607843%,62.352941%);fill-opacity:1;" d="M 72.964844 37.796875 C 72.21875 41.726562 68.132812 45.242188 61.898438 47.8125 C 60.765625 48.285156 59.601562 48.699219 58.347656 49.113281 C 52.324219 51.035156 44.863281 52.1875 36.78125 52.1875 C 36.632812 52.1875 36.511719 52.1875 36.363281 52.1875 C 30.664062 52.15625 25.265625 51.566406 20.492188 50.53125 C 18.644531 50.117188 16.882812 49.675781 15.214844 49.144531 C 13.960938 48.730469 12.765625 48.316406 11.664062 47.84375 C 5.429688 45.242188 1.34375 41.726562 0.597656 37.796875 C 0.507812 37.382812 0.476562 36.9375 0.476562 36.496094 L 0.476562 39.09375 C 0.476562 42.90625 3.640625 46.394531 8.859375 49.113281 C 9.726562 49.558594 10.679688 50 11.664062 50.414062 C 14.257812 51.476562 17.242188 52.394531 20.492188 53.101562 C 25.027344 54.078125 30.128906 54.667969 35.5 54.757812 C 35.914062 54.757812 36.332031 54.757812 36.78125 54.757812 C 46.535156 54.757812 55.367188 53.101562 61.898438 50.414062 C 62.882812 50 63.835938 49.585938 64.703125 49.113281 C 69.921875 46.394531 73.085938 42.90625 73.085938 39.09375 L 73.085938 36.496094 C 73.085938 36.9375 73.054688 37.382812 72.964844 37.796875 Z M 72.964844 37.796875 "/>
<path style=" stroke:none;fill-rule:nonzero;fill:rgb(50.588235%,59.607843%,62.352941%);fill-opacity:1;" d="M 72.964844 60.402344 C 72.25 64.15625 68.492188 67.523438 62.734375 70.066406 C 62.347656 70.242188 61.929688 70.421875 61.511719 70.566406 C 60.617188 70.921875 59.71875 71.25 58.734375 71.574219 C 55.039062 72.785156 50.773438 73.699219 46.148438 74.234375 C 44.953125 74.378906 43.730469 74.46875 42.480469 74.558594 C 40.597656 74.675781 38.691406 74.765625 36.75 74.765625 C 34.066406 74.765625 31.441406 74.648438 28.9375 74.410156 C 25.953125 74.113281 23.117188 73.699219 20.464844 73.109375 C 17.363281 72.429688 14.527344 71.574219 12.023438 70.566406 C 5.609375 67.996094 1.34375 64.421875 0.597656 60.402344 C 0.507812 59.988281 0.476562 59.546875 0.476562 59.101562 L 0.476562 61.703125 C 0.476562 65.574219 3.757812 69.121094 9.1875 71.867188 C 12.320312 73.433594 16.167969 74.765625 20.523438 75.710938 C 22.941406 76.242188 25.476562 76.625 28.160156 76.921875 C 30.933594 77.21875 33.828125 77.367188 36.8125 77.367188 C 38.71875 77.367188 40.597656 77.304688 42.449219 77.1875 C 43.671875 77.097656 44.863281 77.011719 46.027344 76.863281 C 50.710938 76.332031 55.039062 75.414062 58.796875 74.171875 C 60.855469 73.492188 62.761719 72.726562 64.433594 71.867188 C 64.703125 71.722656 64.972656 71.574219 65.238281 71.453125 C 70.160156 68.796875 73.113281 65.398438 73.113281 61.703125 L 73.113281 59.132812 C 73.113281 59.28125 73.085938 59.398438 73.085938 59.546875 C 73.054688 59.839844 73.023438 60.136719 72.964844 60.402344 Z M 72.964844 60.402344 "/>
<path style=" stroke:none;fill-rule:nonzero;fill:rgb(67.058824%,72.156863%,75.294118%);fill-opacity:1;" d="M 64.703125 49.113281 C 63.835938 49.558594 62.882812 50 61.898438 50.414062 C 55.367188 53.101562 46.535156 54.757812 36.78125 54.757812 C 36.363281 54.757812 35.945312 54.757812 35.5 54.757812 C 30.097656 54.667969 25.027344 54.078125 20.492188 53.101562 L 20.492188 73.140625 C 23.148438 73.699219 25.980469 74.144531 28.964844 74.441406 C 31.472656 74.675781 34.097656 74.792969 36.78125 74.792969 C 38.71875 74.792969 40.660156 74.734375 42.507812 74.585938 C 43.761719 74.5 44.984375 74.378906 46.175781 74.261719 C 50.800781 73.730469 55.066406 72.8125 58.765625 71.601562 C 59.71875 71.277344 60.644531 70.953125 61.539062 70.597656 C 61.957031 70.421875 62.347656 70.273438 62.761719 70.09375 C 68.519531 67.554688 72.28125 64.183594 72.996094 60.433594 C 73.054688 60.136719 73.085938 59.839844 73.113281 59.546875 C 73.113281 59.398438 73.144531 59.28125 73.144531 59.132812 L 73.144531 39.09375 C 73.085938 42.90625 69.953125 46.394531 64.703125 49.113281 Z M 64.703125 49.113281 "/>
<path style=" stroke:none;fill-rule:nonzero;fill:rgb(89.803922%,91.372549%,92.54902%);fill-opacity:1;" d="M 87.96875 76.863281 C 87.96875 89.332031 77.765625 99.441406 65.179688 99.441406 C 52.59375 99.441406 42.390625 89.332031 42.390625 76.863281 C 42.390625 64.394531 52.59375 54.285156 65.179688 54.285156 C 77.765625 54.285156 87.96875 64.394531 87.96875 76.863281 Z M 87.96875 76.863281 "/>
<path style=" stroke:none;fill-rule:nonzero;fill:rgb(23.529412%,58.039216%,26.27451%);fill-opacity:1;" d="M 65.179688 58.953125 C 75.589844 58.953125 84.0625 67.167969 84.359375 77.425781 C 84.359375 77.246094 84.359375 77.039062 84.359375 76.863281 C 84.359375 66.34375 75.769531 57.832031 65.148438 57.832031 C 54.53125 57.832031 45.9375 66.34375 45.9375 76.863281 C 45.9375 77.039062 45.9375 77.246094 45.9375 77.425781 C 46.296875 67.199219 54.769531 58.953125 65.179688 58.953125 Z M 65.179688 58.953125 "/>
<path style=" stroke:none;fill-rule:nonzero;fill:rgb(27.058824%,67.45098%,30.588235%);fill-opacity:1;" d="M 65.179688 95.894531 C 75.589844 95.894531 84.0625 87.679688 84.359375 77.425781 C 84.0625 67.167969 75.589844 58.953125 65.179688 58.953125 C 54.769531 58.953125 46.296875 67.167969 46 77.425781 C 46.296875 87.679688 54.769531 95.894531 65.179688 95.894531 Z M 65.179688 95.894531 "/>
<path style=" stroke:none;fill-rule:nonzero;fill:rgb(23.529412%,58.039216%,26.27451%);fill-opacity:1;" d="M 74.992188 77.808594 L 58.734375 68.796875 L 58.734375 86.820312 Z M 74.992188 77.808594 "/>
<path style=" stroke:none;fill-rule:nonzero;fill:rgb(100%,100%,100%);fill-opacity:1;" d="M 74.992188 76.863281 L 58.734375 67.847656 L 58.734375 85.90625 Z M 74.992188 76.863281 "/>
</g>
</svg>
