<?xml version="1.0" encoding="UTF-8"?>
<svg xmlns="http://www.w3.org/2000/svg" xmlns:xlink="http://www.w3.org/1999/xlink" width="100px" height="px" viewBox="0 0 100 98" version="1.1">
<g id="surface1">
<path style=" stroke:none;fill-rule:evenodd;fill:inherit;fill-opacity:1;" d="M 49.851562 0 C 22.285156 0 0 22.457031 0 50.242188 C 0 72.453125 14.277344 91.25 34.085938 97.90625 C 36.5625 98.40625 37.46875 96.824219 37.46875 95.492188 C 37.46875 94.328125 37.390625 90.335938 37.390625 86.175781 C 23.519531 89.171875 20.632812 80.1875 20.632812 80.1875 C 18.40625 74.363281 15.101562 72.867188 15.101562 72.867188 C 10.5625 69.789062 15.433594 69.789062 15.433594 69.789062 C 20.46875 70.125 23.109375 74.949219 23.109375 74.949219 C 27.566406 82.601562 34.746094 80.4375 37.636719 79.105469 C 38.046875 75.863281 39.371094 73.617188 40.773438 72.367188 C 29.710938 71.203125 18.074219 66.878906 18.074219 47.578125 C 18.074219 42.089844 20.054688 37.597656 23.191406 34.105469 C 22.695312 32.859375 20.964844 27.699219 23.6875 20.796875 C 23.6875 20.796875 27.898438 19.464844 37.386719 25.953125 C 41.449219 24.851562 45.640625 24.292969 49.851562 24.289062 C 54.058594 24.289062 58.351562 24.871094 62.3125 25.953125 C 71.804688 19.464844 76.015625 20.796875 76.015625 20.796875 C 78.738281 27.699219 77.003906 32.859375 76.507812 34.105469 C 79.730469 37.597656 81.625 42.089844 81.625 47.578125 C 81.625 66.878906 69.988281 71.121094 58.847656 72.367188 C 60.664062 73.949219 62.230469 76.941406 62.230469 81.683594 C 62.230469 88.421875 62.148438 93.828125 62.148438 95.492188 C 62.148438 96.824219 63.058594 98.40625 65.53125 97.90625 C 85.339844 91.25 99.621094 72.453125 99.621094 50.242188 C 99.699219 22.457031 77.335938 0 49.851562 0 Z M 49.851562 0 "/>
</g>
</svg>
