<?xml version="1.0" encoding="UTF-8"?>
<svg xmlns="http://www.w3.org/2000/svg" xmlns:xlink="http://www.w3.org/1999/xlink" width="100px" height="px" viewBox="0 0 100 100" version="1.1">
<g id="surface1">
<path style=" stroke:none;fill-rule:nonzero;fill:rgb(88.627451%,26.27451%,16.078431%);fill-opacity:1;" d="M 74.429688 44.929688 L 74.359375 44.746094 L 67.480469 26.792969 C 67.339844 26.441406 67.089844 26.144531 66.769531 25.941406 C 66.113281 25.535156 65.273438 25.578125 64.664062 26.054688 C 64.371094 26.292969 64.160156 26.617188 64.054688 26.980469 L 59.410156 41.191406 L 40.601562 41.191406 L 35.957031 26.980469 C 35.855469 26.617188 35.644531 26.289062 35.347656 26.050781 C 34.738281 25.578125 33.898438 25.53125 33.242188 25.941406 C 32.921875 26.140625 32.675781 26.441406 32.535156 26.792969 L 25.640625 44.738281 L 25.574219 44.917969 C 23.539062 50.234375 25.265625 56.253906 29.808594 59.679688 L 29.835938 59.699219 L 29.898438 59.746094 L 40.375 67.59375 L 45.558594 71.515625 L 48.71875 73.898438 C 49.476562 74.476562 50.527344 74.476562 51.285156 73.898438 L 54.445312 71.515625 L 59.628906 67.59375 L 70.171875 59.699219 L 70.199219 59.675781 C 74.730469 56.25 76.453125 50.238281 74.429688 44.929688 Z M 74.429688 44.929688 "/>
<path style=" stroke:none;fill-rule:nonzero;fill:rgb(98.823529%,42.745098%,14.901961%);fill-opacity:1;" d="M 74.429688 44.929688 L 74.359375 44.746094 C 71.007812 45.433594 67.847656 46.855469 65.109375 48.90625 L 50 60.328125 C 55.144531 64.222656 59.625 67.601562 59.625 67.601562 L 70.164062 59.707031 L 70.191406 59.6875 C 74.730469 56.257812 76.457031 50.242188 74.429688 44.929688 Z M 74.429688 44.929688 "/>
<path style=" stroke:none;fill-rule:nonzero;fill:rgb(98.823529%,63.921569%,14.901961%);fill-opacity:1;" d="M 40.375 67.601562 L 45.558594 71.527344 L 48.71875 73.910156 C 49.476562 74.488281 50.527344 74.488281 51.285156 73.910156 L 54.445312 71.527344 L 59.628906 67.601562 C 59.628906 67.601562 55.144531 64.210938 50 60.328125 C 44.855469 64.210938 40.375 67.601562 40.375 67.601562 Z M 40.375 67.601562 "/>
<path style=" stroke:none;fill-rule:nonzero;fill:rgb(98.823529%,42.745098%,14.901961%);fill-opacity:1;" d="M 34.890625 48.90625 C 32.152344 46.851562 28.996094 45.425781 25.640625 44.738281 L 25.574219 44.917969 C 23.539062 50.234375 25.265625 56.253906 29.808594 59.679688 L 29.835938 59.699219 L 29.898438 59.746094 L 40.375 67.59375 C 40.375 67.59375 44.851562 64.210938 50 60.320312 Z M 34.890625 48.90625 "/>
</g>
</svg>
